# xmcd CD database file
#
# Track frame offsets:
#	150
#	17212
#	38630
#	57395
#
# Disc length: 989 seconds
#
# Revision: 0
# Processed by: cddbd v1.5.1PL0 Copyright (c) Steve Scherf et al.
# Submitted via: CDex 1.51
#
DISCID=2c03db04
DTITLE=竹井詩織里 - 君に恋してる
DYEAR=2004
DGENRE=JPop
TTITLE0=君に恋してる
TTITLE1=夕凪
TTITLE2=River
TTITLE3=君に恋してる (less vocal)
EXTD=YEAR: 2004
EXTT0=
EXTT1=
EXTT2=
EXTT3=
PLAYORDER=
